<svg width="274" height="56" viewBox="0 0 274 56" fill="none" xmlns="http://www.w3.org/2000/svg">
<path d="M205 7.37808C212.783 7.37808 218.627 9.02927 222.534 12.3314C226.441 15.6336 228.394 20.8448 228.394 27.9662C228.394 35.1272 226.449 40.3582 222.558 43.6605C218.667 46.9624 212.814 48.6132 205 48.6132C197.155 48.6132 191.294 46.9624 187.419 43.6605C183.544 40.3582 181.606 35.1272 181.606 27.9662C181.606 20.8448 183.552 15.6336 187.443 12.3314C191.334 9.02927 197.186 7.37808 205 7.37808V7.37808ZM205 38.23C209.479 38.23 215.962 38.3671 217.822 33.1876C218.787 30.4989 218.787 25.4332 217.822 22.7441C215.985 17.6282 209.44 17.7615 205 17.7615C200.562 17.7615 194.015 17.6285 192.179 22.7441C191.214 25.4336 191.214 30.4987 192.179 33.1876C194.038 38.3668 200.524 38.23 205 38.23ZM176.294 38.1843L182.291 48.6144H143.638V7.39548H153.54V38.1843H176.294ZM103.845 48.6144L109.824 38.1843H115.946C116.904 38.1843 117.9 38.1843 118.937 38.1843C119.973 38.1843 120.874 38.2249 121.64 38.306C121.193 37.5779 120.675 36.6576 120.085 35.5462C119.495 34.4345 118.929 33.3938 118.386 32.4237L112.646 21.69L97.6239 48.6144H85.9027L106.426 11.9261C107.096 10.7544 107.942 9.70303 108.962 8.77335C109.982 7.84367 111.274 7.37808 112.837 7.37808C114.336 7.37808 115.588 7.81317 116.592 8.68254C117.597 9.55112 118.45 10.6328 119.152 11.9261L139.149 48.6144H103.845V48.6144ZM69.5772 33.7367L85.4406 5.30388L100.5 0L69.1483 56L38.8077 0.0128646L54.3799 5.30364L69.5772 33.7367V33.7367ZM35.0993 48.6144L29.1196 38.1843H23.2029C22.2456 38.1843 21.2494 38.1843 20.2127 38.1843C19.1763 38.1843 18.2752 38.2249 17.5095 38.306C17.9565 37.5779 18.4745 36.6576 19.0644 35.5462C19.6543 34.4345 20.2205 33.3938 20.7632 32.4237L26.504 21.69L41.5256 48.6144H53.2467L32.7233 11.9261C32.053 10.7544 31.2079 9.70303 30.1873 8.77335C29.167 7.84367 27.8753 7.37808 26.3122 7.37808C24.8133 7.37808 23.5618 7.81317 22.557 8.68254C21.5524 9.55112 20.6993 10.6328 19.9974 11.9261L0 48.6144H35.0993V48.6144ZM268.234 48.6129C267.56 48.6129 266.894 48.484 266.237 48.2255C265.579 47.9666 264.846 47.3804 264.037 46.4648L243.3 24.5051V48.6129H233.791V14.8379C233.791 13.5248 233.952 12.3907 234.272 11.4365C234.592 10.4816 235.014 9.70558 235.536 9.10929C236.059 8.5122 236.666 8.07456 237.357 7.796C238.048 7.51784 238.765 7.37808 239.506 7.37808C240.148 7.37808 240.796 7.50775 241.454 7.76669C242.111 8.02539 242.862 8.61159 243.705 9.52617L264.441 31.4869V7.39525H274V41.0941C274 42.4071 273.839 43.541 273.52 44.4954C273.199 45.4505 272.778 46.2364 272.255 46.853C271.732 47.4697 271.117 47.9174 270.409 48.1957C269.701 48.4744 268.976 48.6129 268.234 48.6129V48.6129Z" fill="#939699"/>
</svg>
