<svg width="421" height="162" viewBox="0 0 421 162" fill="none" xmlns="http://www.w3.org/2000/svg">
<path fill-rule="evenodd" clip-rule="evenodd" d="M102.1 142.175V98.8844C102.1 77.2769 84.2719 59.6137 62.4681 59.6137H59.0678C37.5764 59.6137 20.0052 77.0245 20.0052 98.3172V99.5062C20.0052 122.984 39.375 142.175 63.0694 142.175H102.1ZM122.106 162H63.0694C28.3313 162 0 133.927 0 99.5062V98.3172C0 66.0816 26.5327 39.7884 59.0678 39.7884H62.4681C95.3157 39.7884 122.106 66.334 122.106 98.8844V162ZM247.173 39.6713H213.136V0H193.131V39.6713H192.159C159.207 39.6713 132.33 66.3028 132.33 98.9546V162H152.338V98.9546C152.338 77.2457 170.251 59.4966 192.159 59.4966H193.131V100.315C193.131 133.974 220.667 161.258 254.635 161.258C268.452 161.258 281.205 156.742 291.474 149.119C301.832 156.981 314.785 161.657 328.843 161.657C364.833 161.657 385.01 161.657 421 161.657V0H400.992V141.834H328.998H369.103C369.103 141.834 328.893 141.834 328.843 141.834C309.528 141.834 293.299 128.76 288.67 111.058H389.46C390.04 107.696 390.348 104.241 390.348 100.713C390.348 67.0573 362.809 39.7702 328.843 39.7702C294.874 39.7702 267.339 67.0573 267.339 100.713C267.339 113.223 271.143 124.852 277.668 134.526C271.078 138.889 263.159 141.433 254.635 141.433C231.71 141.433 213.136 123.031 213.136 100.315V59.4966H247.173V39.6713ZM288.581 90.7227C293.086 72.8436 309.402 59.5955 328.843 59.5955C348.284 59.5955 364.6 72.8436 369.103 90.7227H288.581Z" fill="white"/>
</svg>
